<svg xmlns="http://www.w3.org/2000/svg" width="40.603" height="40.603" viewBox="0 0 40.603 40.603"><path d="M35.066,0H5.537A5.537,5.537,0,0,0,0,5.537V35.066A5.537,5.537,0,0,0,5.537,40.6H35.066A5.537,5.537,0,0,0,40.6,35.066V5.537A5.537,5.537,0,0,0,35.066,0ZM26.733,17.9l-.408,3.534a.66.66,0,0,1-.651.593H21.983l-.018,10.485a.473.473,0,0,1-.461.478h-3.74a.461.461,0,0,1-.461-.48V22.027H14.534a.662.662,0,0,1-.655-.669l-.014-3.537a.664.664,0,0,1,.655-.674H17.3V13.733c0-3.963,2.353-6.12,5.8-6.12h2.828a.664.664,0,0,1,.657.674v2.978a.664.664,0,0,1-.657.674H24.2c-1.876,0-2.24.923-2.24,2.254v2.955h4.123a.667.667,0,0,1,.651.752Z" fill="#fff"/></svg>