<svg xmlns="http://www.w3.org/2000/svg" width="608.378" height="486.253" viewBox="0 0 608.378 486.253"><g transform="translate(0)"><g transform="translate(0 162.672)"><g transform="translate(320.661 170.702)"><path d="M102.931,89.827,1,35.541,6.237,32.77l96.728,51.514L136.73,66.417l76.415,40.694L208,109.838,136.789,71.91Z" transform="translate(74.572 -32.77)" fill="#143111"/><path d="M2.992,36.432,8.23,33.661,122.8,94.672l28.059-14.844,58.573,31.192-5.237,2.771-53.461-28.47-28.059,14.844Z" transform="translate(53.032 -23.316)" fill="#143111"/><path d="M11.8,34.5,184.94,126.7l-5.145,2.721L6.653,37.216Z" transform="translate(31.133 -14.452)" fill="#143111"/><path d="M124.874,99.11,10.305,38.1l5.237-2.771L135.225,99.064l-28.06,14.844,53.461,28.47-5.237,2.771L96.816,113.959Z" transform="translate(9.149 -5.634)" fill="#143111"/><path d="M12.305,38.938l5.143-2.721L119.38,90.5,85.522,108.415l71.211,37.923-5.143,2.721L75.175,108.365l33.857-17.918Z" transform="translate(-12.305 3.82)" fill="#143111"/></g><path d="M142.476,44.611,244.407,98.9l-5.237,2.771L142.442,50.154,108.677,68.02,32.262,27.326,37.407,24.6l71.212,37.928Z" transform="translate(-32.262 51.21)" fill="#143111"/><path d="M237.159,100.806l-5.237,2.77L117.352,42.564,89.293,57.408,30.72,26.217l5.237-2.771,53.461,28.47,28.059-14.844Z" transform="translate(-5.466 38.957)" fill="#143111"/><path d="M202.424,116.266,29.281,24.057l5.145-2.72,173.143,92.208Z" transform="translate(42.363 16.569)" fill="#143111"/><path d="M63.586,65.264l114.569,61.012-5.237,2.77L53.235,65.308,81.3,50.464,27.834,21.994l5.237-2.77L91.644,50.414Z" transform="translate(90.109 -5.861)" fill="#143111"/><path d="M170.728,128.194l-5.145,2.72L63.653,76.634,97.511,58.717,26.3,20.793l5.145-2.72,76.414,40.694L74,76.685Z" transform="translate(116.99 -18.073)" fill="#143111"/><g transform="translate(0 170.702)"><path d="M142.476,89.827,244.407,35.541,239.17,32.77,142.442,84.284,108.677,66.417,32.262,107.111l5.145,2.727L108.619,71.91Z" transform="translate(-32.262 -32.77)" fill="#143111"/><path d="M237.159,36.432l-5.237-2.771L117.352,94.672,89.293,79.829,30.72,111.02l5.237,2.771,53.461-28.47,28.059,14.844Z" transform="translate(-5.466 -23.316)" fill="#143111"/><path d="M202.424,34.5,29.281,126.7l5.145,2.721,173.143-92.21Z" transform="translate(42.363 -14.452)" fill="#143111"/><path d="M63.586,99.11,178.154,38.1l-5.237-2.771L53.235,99.064,81.3,113.908l-53.461,28.47,5.237,2.771,58.573-31.191Z" transform="translate(90.109 -5.634)" fill="#143111"/><path d="M170.728,38.938l-5.145-2.721L63.653,90.5l33.859,17.917L26.3,146.338l5.145,2.721,76.414-40.694L74,90.447Z" transform="translate(116.99 3.82)" fill="#143111"/></g><g transform="translate(320.661)"><path d="M102.931,44.611,1,98.9l5.237,2.771,96.728-51.514L136.73,68.02l76.415-40.694L208,24.6,136.789,62.529Z" transform="translate(74.572 51.21)" fill="#143111"/><path d="M2.992,100.806l5.237,2.77L122.8,42.564l28.059,14.844,58.573-31.191-5.237-2.771-53.461,28.47L122.674,37.073Z" transform="translate(53.032 38.957)" fill="#143111"/><path d="M11.8,116.266,184.94,24.057l-5.145-2.72L6.653,113.545Z" transform="translate(31.133 16.569)" fill="#143111"/><path d="M124.874,65.264,10.305,126.276l5.237,2.77L135.225,65.308l-28.06-14.844,53.461-28.47-5.237-2.77L96.816,50.414Z" transform="translate(9.149 -5.861)" fill="#143111"/><path d="M12.305,128.194l5.143,2.72L119.38,76.634,85.522,58.717l71.211-37.924-5.143-2.72L75.175,58.767l33.857,17.918Z" transform="translate(-12.305 -18.073)" fill="#143111"/></g></g><g transform="translate(127.236)"><g transform="translate(0 262.234)"><path d="M17.429,128.822,171.916,211.1c8.538,4.519,22.412,4.519,30.95,0l155.688-82.278c8.4-4.525,8.539-11.861,0-16.506L204.066,30.039c-8.539-4.525-22.412-4.525-30.951,0l-155.553,82.4C8.891,116.96,8.891,124.3,17.429,128.822Z" transform="translate(-11.042 -26.645)" fill="#171424"/><path d="M17.52,112.371l155.6-82.325c8.531-4.512,22.4-4.548,30.949,0l154.518,82.289c8.545,4.554,8.431,11.915-.1,16.428l-155.6,82.325c-8.6,4.548-22.4,4.548-30.949,0L17.418,128.8C8.873,124.251,8.919,116.921,17.52,112.371Zm3.242,11.146L175.288,205.8c6.43,3.438,17.777,3.426,24.265-.006l155.6-82.325c2.463-1.3,3.121-2.508,3.121-2.961,0-.436-.632-1.606-3.042-2.889L200.714,35.336a26.638,26.638,0,0,0-12.1-2.567,26.939,26.939,0,0,0-12.155,2.573l-155.6,82.325c-2.306,1.217-3.139,2.436-3.139,2.955s.806,1.7,3.047,2.9Z" transform="translate(-11.035 -26.609)" fill="#63b25a"/></g><g transform="translate(0.004 179.946)"><g transform="translate(0)"><g transform="translate(0.003 93.826)"><path d="M11.03,27.838l.11,60.241c0,3.009,2.081,5.92,6.352,8.229L172.04,178.514c8.543,4.617,22.344,4.617,30.888,0l155.642-82.3c4.271-2.308,6.463-5.22,6.463-8.234l-.109-60.338c0,3.009-2.19,6.019-6.461,8.331l-155.643,82.3c-8.544,4.518-22.344,4.518-30.888,0L17.384,35.97c-4.273-2.314-6.354-5.22-6.354-8.132Z" transform="translate(-11.03 -27.638)" fill="#9cff91"/></g><path d="M17.519,105.284c-8.6,4.551-8.645,11.877-.1,16.428L171.937,204c8.545,4.551,22.348,4.551,30.949,0l155.6-82.324c8.531-4.514,8.645-11.877.1-16.428L204.065,22.96c-8.545-4.551-22.417-4.515-30.949,0Z" transform="translate(-11.039 -19.56)" fill="#63b25a"/><g transform="translate(0.056 89.594)"><path d="M17.364,31.382l154.518,82.292c8.545,4.55,22.348,4.55,30.949,0l155.6-82.328a13.923,13.923,0,0,0,4.908-4.072c3.122,4.192,1.465,9.149-4.908,12.524l-155.6,82.321c-8.6,4.55-22.4,4.55-30.949,0L17.364,39.834c-6.3-3.361-7.858-8.221-4.825-12.37a14.186,14.186,0,0,0,4.825,3.918Z" transform="translate(-11.04 -27.274)" fill="#7fce76"/></g></g><g transform="translate(113.111 185.68)"><g transform="translate(0)"><path d="M38.127,40.147l-.089,21.83-8.695-4.6.089-21.831Z" transform="translate(-29.344 -35.547)" fill="#171424"/><g transform="translate(16.852 8.916)"><path d="M36.837,40.938,36.75,62.77l-8.739-4.624L28.1,36.314Z" transform="translate(-28.011 -36.314)" fill="#171424"/></g><g transform="translate(33.747 17.856)"><path d="M35.463,41.684l-.087,21.83-8.695-4.6.089-21.83Z" transform="translate(-26.681 -37.084)" fill="#171424"/></g></g></g></g><g transform="translate(0.004 89.972)"><g transform="translate(0)"><g transform="translate(0.003 93.827)"><path d="M11.03,20.092l.11,60.241c0,3.009,2.081,5.92,6.352,8.229L172.04,170.767c8.543,4.617,22.344,4.617,30.888,0l155.642-82.3c4.271-2.308,6.463-5.22,6.463-8.234l-.109-60.338c0,3.009-2.19,6.019-6.461,8.331l-155.643,82.3c-8.544,4.518-22.344,4.518-30.888,0L17.384,28.224C13.112,25.909,11.03,23,11.03,20.092Z" transform="translate(-11.03 -19.892)" fill="#9cff91"/></g><path d="M17.519,97.538c-8.6,4.551-8.645,11.877-.1,16.428l154.518,82.288c8.545,4.551,22.348,4.551,30.949,0l155.6-82.324c8.531-4.514,8.645-11.877.1-16.428L204.065,15.214c-8.545-4.551-22.417-4.515-30.949,0Z" transform="translate(-11.039 -11.814)" fill="#63b25a"/><g transform="translate(0.056 89.594)"><path d="M17.364,23.636l154.518,82.292c8.545,4.55,22.348,4.55,30.949,0L358.428,23.6a13.923,13.923,0,0,0,4.908-4.072c3.122,4.191,1.465,9.149-4.908,12.524l-155.6,82.321c-8.6,4.55-22.4,4.55-30.949,0L17.364,32.088c-6.3-3.361-7.858-8.221-4.825-12.37A14.172,14.172,0,0,0,17.364,23.636Z" transform="translate(-11.04 -19.528)" fill="#7fce76"/></g></g><g transform="translate(113.111 185.68)"><g transform="translate(0)"><path d="M38.127,32.4l-.089,21.83-8.695-4.6L29.432,27.8Z" transform="translate(-29.344 -27.8)" fill="#171424"/><g transform="translate(16.852 8.916)"><path d="M36.837,33.192,36.75,55.023,28.011,50.4,28.1,28.568Z" transform="translate(-28.011 -28.568)" fill="#171424"/></g><g transform="translate(33.747 17.856)"><path d="M35.463,33.937l-.087,21.831-8.695-4.6.089-21.83Z" transform="translate(-26.681 -29.338)" fill="#171424"/></g></g></g></g><g transform="translate(0.004)"><g transform="translate(0)"><g transform="translate(0.003 93.826)"><path d="M11.03,12.346l.11,60.241c0,3.009,2.081,5.92,6.352,8.229L172.04,163.021c8.543,4.617,22.344,4.617,30.888,0l155.642-82.3c4.271-2.308,6.463-5.22,6.463-8.234l-.109-60.338c0,3.009-2.19,6.019-6.461,8.331l-155.643,82.3c-8.544,4.518-22.344,4.518-30.888,0L17.384,20.477C13.112,18.163,11.03,15.256,11.03,12.346Z" transform="translate(-11.03 -12.146)" fill="#9cff91"/></g><path d="M17.519,89.791c-8.6,4.551-8.645,11.877-.1,16.428l154.518,82.288c8.545,4.551,22.348,4.552,30.949,0l155.6-82.324c8.531-4.514,8.645-11.877.1-16.428L204.065,7.467c-8.545-4.551-22.417-4.515-30.949,0Z" transform="translate(-11.039 -4.068)" fill="#7fce76"/><g transform="translate(71.418 39.549)"><path d="M227.752,63.283,122.947,7.473,16.672,63.7,121.486,119.51Z" transform="translate(-16.672 -7.473)" fill="#63b25a"/></g><g transform="translate(0.056 89.594)"><path d="M17.364,15.888,171.882,98.18c8.545,4.55,22.348,4.55,30.949,0l155.6-82.326a13.923,13.923,0,0,0,4.908-4.072c3.122,4.192,1.465,9.149-4.908,12.524l-155.6,82.321c-8.6,4.55-22.4,4.55-30.949,0L17.364,24.342c-6.3-3.361-7.858-8.221-4.825-12.37A14.184,14.184,0,0,0,17.364,15.888Z" transform="translate(-11.04 -11.781)" fill="#63b25a"/></g></g><g transform="translate(113.111 185.68)"><g transform="translate(0)"><path d="M38.127,24.654l-.089,21.831-8.695-4.6.089-21.83Z" transform="translate(-29.344 -20.054)" fill="#171424"/><g transform="translate(16.852 8.916)"><path d="M36.837,25.446l-.087,21.83-8.739-4.624.087-21.83Z" transform="translate(-28.011 -20.822)" fill="#171424"/></g><g transform="translate(33.747 17.854)"><path d="M35.463,26.192l-.087,21.83-8.695-4.6.089-21.831Z" transform="translate(-26.681 -21.591)" fill="#171424"/></g></g></g></g></g></g><g transform="translate(138.902 119.427)"><path d="M40.105,32.012a10.909,10.909,0,0,1,5.458,8.7c-.01,3.158-2.46,4.473-5.494,2.869s-5.468-5.507-5.458-8.664c.01-3.193,2.46-4.515,5.494-2.9Z" transform="translate(-2.087 165.83)" fill="#171424"/><path d="M41.385,31.261c3.034,1.6,5.5,5.528,5.5,8.72-.01,3.157-2.5,4.452-5.531,2.848-3-1.582-5.468-5.507-5.458-8.664C35.9,30.973,38.388,29.672,41.385,31.261Z" transform="translate(-19.647 157.966)" fill="#171424"/><path d="M42.671,30.529a10.906,10.906,0,0,1,5.458,8.7c-.01,3.157-2.459,4.473-5.493,2.869s-5.469-5.507-5.459-8.664C37.188,30.241,39.638,28.92,42.671,30.529Z" transform="translate(-37.177 150.104)" fill="#171424"/><path d="M40.105,24.265a10.909,10.909,0,0,1,5.458,8.7c-.01,3.158-2.46,4.473-5.494,2.869s-5.468-5.507-5.458-8.664C34.621,23.977,37.071,22.654,40.105,24.265Z" transform="translate(-2.087 83.603)" fill="#171424"/><path d="M41.385,23.515c3.034,1.6,5.5,5.528,5.5,8.72-.01,3.157-2.5,4.452-5.531,2.848-3-1.582-5.468-5.507-5.458-8.664C35.9,23.227,38.388,21.926,41.385,23.515Z" transform="translate(-19.647 75.739)" fill="#171424"/><path d="M42.671,22.784a10.906,10.906,0,0,1,5.458,8.7c-.01,3.157-2.459,4.473-5.493,2.869s-5.469-5.507-5.459-8.664C37.188,22.495,39.638,21.173,42.671,22.784Z" transform="translate(-37.177 67.877)" fill="#171424"/><path d="M40.105,16.518a10.909,10.909,0,0,1,5.458,8.7c-.01,3.157-2.46,4.473-5.494,2.869s-5.468-5.507-5.458-8.664C34.621,16.23,37.071,14.908,40.105,16.518Z" transform="translate(-2.087 1.377)" fill="#171424"/><path d="M41.385,15.768c3.034,1.6,5.5,5.528,5.5,8.72-.01,3.157-2.5,4.452-5.531,2.848-3-1.582-5.468-5.507-5.458-8.664.009-3.193,2.5-4.494,5.493-2.9Z" transform="translate(-19.647 -6.488)" fill="#171424"/><path d="M42.671,15.037a10.906,10.906,0,0,1,5.458,8.7c-.01,3.157-2.459,4.473-5.493,2.869s-5.469-5.507-5.459-8.664C37.188,14.749,39.638,13.426,42.671,15.037Z" transform="translate(-37.177 -14.35)" fill="#171424"/></g></svg>