<svg xmlns="http://www.w3.org/2000/svg" xmlns:xlink="http://www.w3.org/1999/xlink" width="548" height="644" viewBox="0 0 548 644"><defs><filter id="a" x="0" y="0" width="278" height="278" filterUnits="userSpaceOnUse"><feOffset dy="3" input="SourceAlpha"/><feGaussianBlur stdDeviation="3" result="b"/><feFlood flood-opacity="0.161"/><feComposite operator="in" in2="b"/><feComposite in="SourceGraphic"/></filter><filter id="c" x="130" y="183" width="278" height="278" filterUnits="userSpaceOnUse"><feOffset dy="3" input="SourceAlpha"/><feGaussianBlur stdDeviation="3" result="d"/><feFlood flood-color="#fff" flood-opacity="0.161"/><feComposite operator="in" in2="d"/><feComposite in="SourceGraphic"/></filter><filter id="e" x="270" y="366" width="278" height="278" filterUnits="userSpaceOnUse"><feOffset dy="3" input="SourceAlpha"/><feGaussianBlur stdDeviation="3" result="f"/><feFlood flood-color="#fff" flood-opacity="0.161"/><feComposite operator="in" in2="f"/><feComposite in="SourceGraphic"/></filter></defs><g transform="translate(-197 -1277)"><g transform="matrix(1, 0, 0, 1, 197, 1277)" filter="url(#a)"><rect width="260" height="260" transform="translate(9 6)" fill="#171424"/></g><g transform="translate(239 1320.689)"><g transform="translate(0 0.47)"><path d="M128.271,86.182c14.7-6.664,16.894-57.391,8.22-72.332C125.161-5.654,71.3-1.738,54.293,12.2,52.341,19.13,52.545,31.7,52.636,41.689h53.383v4.678H52.647c0,.068-23.762.148-23.762.148-40.974,0-40.123,88.987,13.942,88.987,0,0,1.987-19.709,5.461-29.587C59.016,75.431,104.089,97.15,128.271,86.182ZM72.379,34.468A11.149,11.149,0,1,1,83.528,23.319,11.137,11.137,0,0,1,72.379,34.468Z" transform="translate(0 -0.47)" fill="#9cff91"/><path d="M102.663,4.691s-1.419,19.721-4.893,29.587C87.041,64.75,41.98,43.042,17.786,54.01,3.095,60.674.881,111.4,9.566,126.341c11.319,19.516,65.179,15.6,82.2,1.646,1.953-6.914,1.748-19.482,1.658-29.473H40.027V93.837H93.4c0-.068,26.306-.148,26.306-.148C157.466,93.689,160.849,4.691,102.663,4.691Zm-30.9,99.1a11.143,11.143,0,1,1-11.138,11.149A11.147,11.147,0,0,1,71.76,103.794Z" transform="translate(46.294 43.226)" fill="#9cff91"/></g></g><g transform="translate(16 44)"><g transform="matrix(1, 0, 0, 1, 181, 1233)" filter="url(#c)"><rect width="260" height="260" transform="translate(139 189)" fill="#171424"/></g><g transform="translate(346.999 1513.624)"><path d="M15.558,23.321c-.4,0-.5-.2-.3-.5l2.107-2.71a1.437,1.437,0,0,1,1.1-.5H54.3c.4,0,.5.3.3.6l-1.707,2.609a1.53,1.53,0,0,1-1,.6l-36.333-.1ZM.4,32.555c-.4,0-.5-.2-.3-.5l2.107-2.71a1.437,1.437,0,0,1,1.1-.5H49.081a.461.461,0,0,1,.5.6l-.8,2.408a.877.877,0,0,1-.9.6Zm24.289,9.234c-.4,0-.5-.3-.3-.6L25.8,38.677a1.332,1.332,0,0,1,1-.6H46.873c.4,0,.6.3.6.7l-.2,2.408a.754.754,0,0,1-.7.7l-21.881-.1ZM128.877,21.514,112.012,25.93c-1.506.4-1.606.5-2.911-1a13.332,13.332,0,0,0-4.717-3.814C98.061,18,91.938,18.9,86.217,22.618a21.346,21.346,0,0,0-10.238,19.07,15.737,15.737,0,0,0,13.55,15.759c6.825.9,12.546-1.506,17.064-6.624.9-1.1,1.707-2.309,2.71-3.714H89.932c-2.107,0-2.609-1.3-1.907-3.012,1.3-3.112,3.714-8.33,5.119-10.94a2.71,2.71,0,0,1,2.509-1.606h36.535c-.2,2.71-.2,5.419-.6,8.13a42.8,42.8,0,0,1-8.23,19.673C116.13,68.889,106.7,74.812,94.751,76.418c-9.836,1.3-18.97-.6-27-6.624A31.505,31.505,0,0,1,55,47.511C53.7,36.57,56.91,26.735,63.535,18.1A44.539,44.539,0,0,1,91.638.739c9.434-1.707,18.468-.6,26.6,4.918A31.471,31.471,0,0,1,129.88,19.809c.6.9.2,1.405-1,1.707Z" transform="translate(0 0)" fill="#9cff91"/><path d="M192.631,77.242c-9.133-.2-17.465-2.818-24.49-8.834A31.474,31.474,0,0,1,157.3,49.037c-1.807-11.342,1.3-21.38,8.13-30.312,7.328-9.636,16.159-14.654,28.1-16.762,10.238-1.807,19.874-.8,28.605,5.119,7.929,5.419,12.847,12.747,14.152,22.382,1.707,13.55-2.208,24.59-11.543,34.026a45.994,45.994,0,0,1-24.089,12.847c-2.71.5-5.419.6-8.028.9Zm23.888-40.549a29,29,0,0,0-.3-3.312c-1.807-9.937-10.94-15.558-20.475-13.349-9.335,2.107-15.356,8.028-17.564,17.465a16.528,16.528,0,0,0,9.234,18.97,18.406,18.406,0,0,0,16.361-.6c7.929-4.107,12.245-10.538,12.747-19.171Z" transform="translate(-30.534 -0.224)" fill="#9cff91"/></g></g><g transform="translate(26 106)"><g transform="matrix(1, 0, 0, 1, 171, 1171)" filter="url(#e)"><rect width="260" height="260" transform="translate(279 372)" fill="#171424"/></g><g transform="translate(489 1580.118)"><path d="M90.674,204.346a16.462,16.462,0,0,1-7.884-2.065L57.821,187.45c-3.755-2.065-1.877-2.816-.751-3.191a45.458,45.458,0,0,0,11.264-5.069,1.727,1.727,0,0,1,1.877.188L89.36,190.829a2.386,2.386,0,0,0,2.253,0l74.9-43.366a2.157,2.157,0,0,0,1.126-2.065V58.854a2.157,2.157,0,0,0-1.126-2.065l-74.9-43.178a2.385,2.385,0,0,0-2.253,0L14.455,56.789a2.356,2.356,0,0,0-1.126,2.065V145.4a2.355,2.355,0,0,0,1.126,2.065L34.918,159.29c11.076,5.632,18.022-.939,18.022-7.509V66.363a2.283,2.283,0,0,1,2.253-2.253h9.574a2.283,2.283,0,0,1,2.253,2.253v85.418c0,14.831-8.073,23.466-22.152,23.466-4.318,0-7.7,0-17.271-4.693L7.885,159.29A15.843,15.843,0,0,1,0,145.586V59.042a15.844,15.844,0,0,1,7.885-13.7L82.79,1.971a16.754,16.754,0,0,1,15.769,0l74.906,43.366a15.844,15.844,0,0,1,7.884,13.7v86.545a15.843,15.843,0,0,1-7.884,13.7L98.559,202.657a19.214,19.214,0,0,1-7.884,1.689Zm23.091-59.511c-32.853,0-39.611-15.018-39.611-27.784a2.283,2.283,0,0,1,2.253-2.253h9.762a1.929,1.929,0,0,1,2.065,1.877c1.5,9.949,5.819,14.831,25.719,14.831,15.77,0,22.528-3.567,22.528-12.015,0-4.881-1.878-8.448-26.471-10.889-20.463-2.065-33.229-6.57-33.229-22.9,0-15.206,12.766-24.217,34.167-24.217,24.029,0,35.857,8.26,37.359,26.282a3.028,3.028,0,0,1-.563,1.69,2.317,2.317,0,0,1-1.5.751h-9.762a2.2,2.2,0,0,1-2.066-1.69c-2.253-10.325-8.072-13.7-23.466-13.7-17.271,0-19.336,6.007-19.336,10.513,0,5.445,2.44,7.134,25.719,10.138,23.092,3,33.98,7.321,33.98,23.466-.188,16.52-13.7,25.907-37.546,25.907Z" transform="translate(0 0)" fill="#9cff91"/></g></g></g></svg>