<svg xmlns="http://www.w3.org/2000/svg" width="42.139" height="42.14" viewBox="0 0 42.139 42.14"><g transform="translate(-0.003)"><path d="M39.824,2.318A7.609,7.609,0,0,0,34.242,0H7.9A7.612,7.612,0,0,0,2.321,2.318,7.612,7.612,0,0,0,0,7.9V34.239a7.612,7.612,0,0,0,2.318,5.583A7.611,7.611,0,0,0,7.9,42.14H34.242a7.915,7.915,0,0,0,7.9-7.9V7.9A7.612,7.612,0,0,0,39.824,2.318Zm-7.585,13.9a7.275,7.275,0,0,1,.028.741,16.6,16.6,0,0,1-2.73,9.067,17.292,17.292,0,0,1-3.305,3.759,14.838,14.838,0,0,1-4.609,2.606,16.773,16.773,0,0,1-5.761.975,16.168,16.168,0,0,1-8.834-2.579,11.118,11.118,0,0,0,1.372.082,11.382,11.382,0,0,0,7.161-2.47,5.466,5.466,0,0,1-3.333-1.152,5.855,5.855,0,0,1-2.044-2.853,7.725,7.725,0,0,0,1.07.109,5.363,5.363,0,0,0,1.4-.219,5.763,5.763,0,0,1-3.374-1.989A5.478,5.478,0,0,1,7.9,18.629v-.055a6.8,6.8,0,0,0,2.743.713,5.434,5.434,0,0,1-2.5-4.8,5.706,5.706,0,0,1,.8-2.908,16.33,16.33,0,0,0,5.267,4.252,16.311,16.311,0,0,0,6.639,1.783,5.3,5.3,0,0,1-.137-1.317,5.761,5.761,0,0,1,5.761-5.762,5.476,5.476,0,0,1,4.2,1.811,11.46,11.46,0,0,0,3.676-1.4,5.6,5.6,0,0,1-2.551,3.21,12.213,12.213,0,0,0,3.319-.933A11.2,11.2,0,0,1,32.239,16.214Z" transform="translate(0 0)" fill="#fff"/></g></svg>